<svg xmlns="http://www.w3.org/2000/svg" viewBox="0 0 800 560" role="img" aria-labelledby="t"><title id="t">Basket of certified organic vegetables</title>
<rect width="800" height="560" fill="#EEF2E4"/>
<g transform="translate(400 300)">
<path d="M-150 -160 Q-160 -250 -110 -250 Q-80 -250 -95 -150Z" fill="#5E8B4A"/><path d="M-120 -150 L-60 60 L-10 -150Z" fill="#E07A2E"/>
<circle cx="80" cy="-150" r="80" fill="#C8392B"/><path d="M60 -225 q20 -20 40 0 q-20 10 -40 0Z" fill="#2F5D3A"/>
<ellipse cx="-20" cy="-150" rx="70" ry="60" fill="#6FA34A"/><ellipse cx="-20" cy="-150" rx="40" ry="35" fill="#9BC46B"/>
<circle cx="170" cy="-110" r="50" fill="#7A3D6B"/>
<path d="M-260 -80 H260 L220 150 Q210 180 180 180 H-180 Q-210 180 -220 150Z" fill="#A9784E"/>
<g stroke="#7E5535" stroke-width="8"><path d="M-250 -30 H250"/><path d="M-240 30 H240"/><path d="M-230 90 H230"/></g>
<path d="M-200 -80 Q0 -300 200 -80" fill="none" stroke="#7E5535" stroke-width="16"/>
</g></svg>
